<svg width="1163" height="211" viewBox="0 0 1163 211" fill="none" xmlns="http://www.w3.org/2000/svg">
    <g clip-path="url(#clip0_3745_4)">
    <rect width="33" height="211" fill="var(--color-dark-1)"/>
    <rect x="211" width="54" height="211" fill="var(--color-dark-1)"/>
    <rect x="47" width="14" height="211" fill="var(--color-dark-1)"/>
    <rect x="94" width="14" height="211" fill="var(--color-dark-1)"/>
    <rect x="144" width="40" height="211" fill="var(--color-dark-1)"/>
    <rect width="14" height="211" transform="matrix(-1 0 0 1 357 0)" fill="var(--color-dark-1)"/>
    <rect width="14" height="211" transform="matrix(-1 0 0 1 398 0)" fill="var(--color-dark-1)"/>
    <rect width="27" height="211" transform="matrix(-1 0 0 1 318 0)" fill="var(--color-dark-1)"/>
    <path d="M477.924 21.208C477.924 24.9493 477.065 28.384 475.348 31.512C473.631 34.5787 470.993 37.0627 467.436 38.964C463.879 40.8653 459.463 41.816 454.188 41.816H444.436V65H428.704V0.415998H454.188C459.34 0.415998 463.695 1.30533 467.252 3.084C470.809 4.86266 473.477 7.316 475.256 10.444C477.035 13.572 477.924 17.16 477.924 21.208ZM452.992 29.304C455.997 29.304 458.236 28.5987 459.708 27.188C461.18 25.7773 461.916 23.784 461.916 21.208C461.916 18.632 461.18 16.6387 459.708 15.228C458.236 13.8173 455.997 13.112 452.992 13.112H444.436V29.304H452.992ZM519.05 65L505.618 40.62H501.846V65H486.114V0.415998H512.518C517.609 0.415998 521.933 1.30533 525.49 3.084C529.109 4.86266 531.807 7.316 533.586 10.444C535.365 13.5107 536.254 16.9453 536.254 20.748C536.254 25.0413 535.027 28.8747 532.574 32.248C530.182 35.6213 526.625 38.0133 521.902 39.424L536.806 65H519.05ZM501.846 29.488H511.598C514.481 29.488 516.627 28.7827 518.038 27.372C519.51 25.9613 520.246 23.968 520.246 21.392C520.246 18.9387 519.51 17.0067 518.038 15.596C516.627 14.1853 514.481 13.48 511.598 13.48H501.846V29.488ZM562.874 52.12H590.658V65H545.026V53.04L572.626 13.296H545.026V0.415998H590.658V12.376L562.874 52.12ZM616.666 13.02V26.084H637.734V38.228H616.666V52.396H640.494V65H600.934V0.415998H640.494V13.02H616.666ZM723.848 0.415998V65H708.116V26.268L693.672 65H680.976L666.44 26.176V65H650.708V0.415998H669.292L687.416 45.128L705.356 0.415998H723.848ZM750.893 13.02V26.084H771.961V38.228H750.893V52.396H774.721V65H735.161V0.415998H774.721V13.02H750.893ZM822.378 65L800.666 36.48V65H784.934V0.415998H800.666V28.752L822.194 0.415998H840.686L815.662 32.064L841.606 65H822.378ZM941.719 0.415998V65H925.987V26.268L911.543 65H898.847L884.311 26.176V65H868.579V0.415998H887.163L905.287 45.128L923.227 0.415998H941.719ZM968.764 0.415998V65H953.032V0.415998H968.764ZM1013.1 65L999.669 40.62H995.897V65H980.165V0.415998H1006.57C1011.66 0.415998 1015.98 1.30533 1019.54 3.084C1023.16 4.86266 1025.86 7.316 1027.64 10.444C1029.42 13.5107 1030.3 16.9453 1030.3 20.748C1030.3 25.0413 1029.08 28.8747 1026.62 32.248C1024.23 35.6213 1020.68 38.0133 1015.95 39.424L1030.86 65H1013.1ZM995.897 29.488H1005.65C1008.53 29.488 1010.68 28.7827 1012.09 27.372C1013.56 25.9613 1014.3 23.968 1014.3 21.392C1014.3 18.9387 1013.56 17.0067 1012.09 15.596C1010.68 14.1853 1008.53 13.48 1005.65 13.48H995.897V29.488ZM1070.72 65.644C1064.65 65.644 1059.07 64.2333 1053.98 61.412C1048.95 58.5907 1044.93 54.6653 1041.93 49.636C1038.98 44.5453 1037.51 38.8413 1037.51 32.524C1037.51 26.2067 1038.98 20.5333 1041.93 15.504C1044.93 10.4747 1048.95 6.54933 1053.98 3.728C1059.07 0.906666 1064.65 -0.504001 1070.72 -0.504001C1076.8 -0.504001 1082.35 0.906666 1087.38 3.728C1092.47 6.54933 1096.45 10.4747 1099.34 15.504C1102.28 20.5333 1103.75 26.2067 1103.75 32.524C1103.75 38.8413 1102.28 44.5453 1099.34 49.636C1096.39 54.6653 1092.41 58.5907 1087.38 61.412C1082.35 64.2333 1076.8 65.644 1070.72 65.644ZM1070.72 51.292C1075.88 51.292 1079.99 49.5747 1083.05 46.14C1086.18 42.7053 1087.74 38.1667 1087.74 32.524C1087.74 26.82 1086.18 22.2813 1083.05 18.908C1079.99 15.4733 1075.88 13.756 1070.72 13.756C1065.51 13.756 1061.34 15.4427 1058.21 18.816C1055.15 22.1893 1053.61 26.7587 1053.61 32.524C1053.61 38.228 1055.15 42.7973 1058.21 46.232C1061.34 49.6053 1065.51 51.292 1070.72 51.292ZM1135.87 65.644C1131.15 65.644 1126.92 64.8773 1123.18 63.344C1119.44 61.8107 1116.43 59.5413 1114.16 56.536C1111.95 53.5307 1110.79 49.912 1110.66 45.68H1127.41C1127.65 48.072 1128.48 49.912 1129.89 51.2C1131.3 52.4267 1133.14 53.04 1135.41 53.04C1137.74 53.04 1139.58 52.5187 1140.93 51.476C1142.28 50.372 1142.96 48.8693 1142.96 46.968C1142.96 45.3733 1142.4 44.0547 1141.3 43.012C1140.26 41.9693 1138.94 41.1107 1137.34 40.436C1135.81 39.7613 1133.6 38.9947 1130.72 38.136C1126.55 36.848 1123.15 35.56 1120.51 34.272C1117.87 32.984 1115.6 31.0827 1113.7 28.568C1111.8 26.0533 1110.85 22.772 1110.85 18.724C1110.85 12.7133 1113.03 8.02133 1117.38 4.648C1121.74 1.21333 1127.41 -0.504001 1134.4 -0.504001C1141.52 -0.504001 1147.25 1.21333 1151.6 4.648C1155.96 8.02133 1158.29 12.744 1158.6 18.816H1141.58C1141.45 16.7307 1140.69 15.1053 1139.28 13.94C1137.87 12.7133 1136.06 12.1 1133.85 12.1C1131.95 12.1 1130.41 12.6213 1129.25 13.664C1128.08 14.6453 1127.5 16.0867 1127.5 17.988C1127.5 20.0733 1128.48 21.6987 1130.44 22.864C1132.41 24.0293 1135.47 25.2867 1139.64 26.636C1143.82 28.0467 1147.19 29.396 1149.76 30.684C1152.4 31.972 1154.67 33.8427 1156.57 36.296C1158.47 38.7493 1159.42 41.908 1159.42 45.772C1159.42 49.452 1158.47 52.7947 1156.57 55.8C1154.73 58.8053 1152.03 61.1973 1148.48 62.976C1144.92 64.7547 1140.72 65.644 1135.87 65.644Z" fill="var(--color-dark-1)"/>
    <mask id="path-10-outside-1_3745_4" maskUnits="userSpaceOnUse" x="425" y="95" width="728" height="118" fill="black">
    <rect fill="white" x="425" y="95" width="728" height="118"/>
    <path d="M579.144 102.104L552.06 206H521.424L504.848 137.624L487.68 206H457.044L430.7 102.104H457.784L472.732 177.732L491.232 102.104H519.056L536.816 177.732L551.912 102.104H579.144ZM597.016 122.38V143.396H630.908V162.932H597.016V185.724H635.348V206H571.708V102.104H635.348V122.38H597.016ZM694.55 152.72C700.569 154.003 705.404 157.012 709.054 161.748C712.705 166.385 714.53 171.713 714.53 177.732C714.53 186.415 711.472 193.321 705.354 198.452C699.336 203.484 690.9 206 680.046 206H631.65V102.104H678.418C688.976 102.104 697.214 104.521 703.134 109.356C709.153 114.191 712.162 120.752 712.162 129.04C712.162 135.157 710.534 140.239 707.278 144.284C704.121 148.329 699.878 151.141 694.55 152.72ZM656.958 144.136H673.534C677.678 144.136 680.836 143.248 683.006 141.472C685.276 139.597 686.41 136.884 686.41 133.332C686.41 129.78 685.276 127.067 683.006 125.192C680.836 123.317 677.678 122.38 673.534 122.38H656.958V144.136ZM675.606 185.576C679.849 185.576 683.105 184.639 685.374 182.764C687.742 180.791 688.926 177.979 688.926 174.328C688.926 170.677 687.693 167.816 685.226 165.744C682.858 163.672 679.553 162.636 675.31 162.636H656.958V185.576H675.606ZM759.24 102.104C770.192 102.104 779.763 104.275 787.952 108.616C796.142 112.957 802.456 119.075 806.896 126.968C811.435 134.763 813.704 143.791 813.704 154.052C813.704 164.215 811.435 173.243 806.896 181.136C802.456 189.029 796.092 195.147 787.804 199.488C779.615 203.829 770.094 206 759.24 206H720.316V102.104H759.24ZM757.612 184.096C767.183 184.096 774.632 181.481 779.96 176.252C785.288 171.023 787.952 163.623 787.952 154.052C787.952 144.481 785.288 137.032 779.96 131.704C774.632 126.376 767.183 123.712 757.612 123.712H745.624V184.096H757.612ZM833.028 122.38V143.396H866.92V162.932H833.028V185.724H871.36V206H807.72V102.104H871.36V122.38H833.028ZM905.254 207.036C897.657 207.036 890.849 205.803 884.83 203.336C878.811 200.869 873.977 197.219 870.326 192.384C866.774 187.549 864.899 181.728 864.702 174.92H891.638C892.033 178.768 893.365 181.728 895.634 183.8C897.903 185.773 900.863 186.76 904.514 186.76C908.263 186.76 911.223 185.921 913.394 184.244C915.565 182.468 916.65 180.051 916.65 176.992C916.65 174.427 915.762 172.305 913.986 170.628C912.309 168.951 910.187 167.569 907.622 166.484C905.155 165.399 901.603 164.165 896.966 162.784C890.257 160.712 884.781 158.64 880.538 156.568C876.295 154.496 872.645 151.437 869.586 147.392C866.527 143.347 864.998 138.068 864.998 131.556C864.998 121.887 868.501 114.339 875.506 108.912C882.511 103.387 891.638 100.624 902.886 100.624C914.331 100.624 923.557 103.387 930.562 108.912C937.567 114.339 941.317 121.936 941.81 131.704H914.43C914.233 128.349 912.999 125.735 910.73 123.86C908.461 121.887 905.55 120.9 901.998 120.9C898.939 120.9 896.473 121.739 894.598 123.416C892.723 124.995 891.786 127.313 891.786 130.372C891.786 133.727 893.365 136.341 896.522 138.216C899.679 140.091 904.613 142.113 911.322 144.284C918.031 146.553 923.458 148.724 927.602 150.796C931.845 152.868 935.495 155.877 938.554 159.824C941.613 163.771 943.142 168.852 943.142 175.068C943.142 180.988 941.613 186.365 938.554 191.2C935.594 196.035 931.253 199.883 925.53 202.744C919.807 205.605 913.049 207.036 905.254 207.036ZM963.897 102.104V206H938.589V102.104H963.897ZM1031.08 134.96C1029.2 131.507 1026.49 128.892 1022.94 127.116C1019.48 125.241 1015.39 124.304 1010.65 124.304C1002.46 124.304 995.902 127.017 990.969 132.444C986.036 137.772 983.569 144.925 983.569 153.904C983.569 163.475 986.134 170.973 991.265 176.4C996.494 181.728 1003.65 184.392 1012.73 184.392C1018.94 184.392 1024.17 182.813 1028.41 179.656C1032.75 176.499 1035.91 171.96 1037.89 166.04H1005.77V147.392H1060.83V170.924C1058.95 177.239 1055.74 183.109 1051.21 188.536C1046.77 193.963 1041.09 198.353 1034.19 201.708C1027.28 205.063 1019.48 206.74 1010.8 206.74C1000.54 206.74 991.364 204.52 983.273 200.08C975.281 195.541 969.016 189.276 964.477 181.284C960.037 173.292 957.817 164.165 957.817 153.904C957.817 143.643 960.037 134.516 964.477 126.524C969.016 118.433 975.281 112.168 983.273 107.728C991.265 103.189 1000.39 100.92 1010.65 100.92C1023.09 100.92 1033.54 103.929 1042.03 109.948C1050.61 115.967 1056.29 124.304 1059.05 134.96H1031.08ZM1147.66 206H1122.35L1080.02 141.916V206H1054.72V102.104H1080.02L1122.35 166.484V102.104H1147.66V206Z"/>
    </mask>
    <path d="M579.144 102.104L583.982 103.365C584.373 101.867 584.047 100.272 583.1 99.0467C582.154 97.8215 580.692 97.104 579.144 97.104V102.104ZM552.06 206V211C554.336 211 556.324 209.463 556.898 207.261L552.06 206ZM521.424 206L516.565 207.178C517.108 209.421 519.116 211 521.424 211V206ZM504.848 137.624L509.707 136.446C509.165 134.211 507.168 132.633 504.868 132.624C502.568 132.615 500.559 134.176 499.999 136.406L504.848 137.624ZM487.68 206V211C489.972 211 491.971 209.441 492.529 207.218L487.68 206ZM457.044 206L452.197 207.229C452.76 209.447 454.756 211 457.044 211V206ZM430.7 102.104V97.104C429.157 97.104 427.701 97.8161 426.754 99.0335C425.807 100.251 425.474 101.838 425.853 103.333L430.7 102.104ZM457.784 102.104L462.689 101.134C462.226 98.7922 460.172 97.104 457.784 97.104V102.104ZM472.732 177.732L467.827 178.702C468.282 181.003 470.275 182.678 472.62 182.731C474.965 182.783 477.031 181.199 477.589 178.92L472.732 177.732ZM491.232 102.104V97.104C488.928 97.104 486.923 98.6781 486.375 100.916L491.232 102.104ZM519.056 102.104L523.924 100.961C523.393 98.7013 521.377 97.104 519.056 97.104V102.104ZM536.816 177.732L531.948 178.875C532.486 181.165 534.548 182.771 536.9 182.731C539.252 182.692 541.259 181.018 541.719 178.711L536.816 177.732ZM551.912 102.104V97.104C549.528 97.104 547.475 98.7873 547.009 101.125L551.912 102.104ZM574.306 100.843L547.222 204.739L556.898 207.261L583.982 103.365L574.306 100.843ZM552.06 201H521.424V211H552.06V201ZM526.283 204.822L509.707 136.446L499.989 138.802L516.565 207.178L526.283 204.822ZM499.999 136.406L482.831 204.782L492.529 207.218L509.697 138.842L499.999 136.406ZM487.68 201H457.044V211H487.68V201ZM461.891 204.771L435.547 100.875L425.853 103.333L452.197 207.229L461.891 204.771ZM430.7 107.104H457.784V97.104H430.7V107.104ZM452.879 103.073L467.827 178.702L477.637 176.762L462.689 101.134L452.879 103.073ZM477.589 178.92L496.089 103.292L486.375 100.916L467.875 176.544L477.589 178.92ZM491.232 107.104H519.056V97.104H491.232V107.104ZM514.188 103.247L531.948 178.875L541.684 176.589L523.924 100.961L514.188 103.247ZM541.719 178.711L556.815 103.083L547.009 101.125L531.913 176.753L541.719 178.711ZM551.912 107.104H579.144V97.104H551.912V107.104ZM597.016 122.38V117.38C594.255 117.38 592.016 119.619 592.016 122.38H597.016ZM597.016 143.396H592.016C592.016 146.157 594.255 148.396 597.016 148.396V143.396ZM630.908 143.396H635.908C635.908 140.635 633.67 138.396 630.908 138.396V143.396ZM630.908 162.932V167.932C633.67 167.932 635.908 165.693 635.908 162.932H630.908ZM597.016 162.932V157.932C594.255 157.932 592.016 160.171 592.016 162.932H597.016ZM597.016 185.724H592.016C592.016 188.485 594.255 190.724 597.016 190.724V185.724ZM635.348 185.724H640.348C640.348 182.963 638.11 180.724 635.348 180.724V185.724ZM635.348 206V211C638.11 211 640.348 208.761 640.348 206H635.348ZM571.708 206H566.708C566.708 208.761 568.947 211 571.708 211V206ZM571.708 102.104V97.104C568.947 97.104 566.708 99.3426 566.708 102.104H571.708ZM635.348 102.104H640.348C640.348 99.3426 638.11 97.104 635.348 97.104V102.104ZM635.348 122.38V127.38C638.11 127.38 640.348 125.141 640.348 122.38H635.348ZM592.016 122.38V143.396H602.016V122.38H592.016ZM597.016 148.396H630.908V138.396H597.016V148.396ZM625.908 143.396V162.932H635.908V143.396H625.908ZM630.908 157.932H597.016V167.932H630.908V157.932ZM592.016 162.932V185.724H602.016V162.932H592.016ZM597.016 190.724H635.348V180.724H597.016V190.724ZM630.348 185.724V206H640.348V185.724H630.348ZM635.348 201H571.708V211H635.348V201ZM576.708 206V102.104H566.708V206H576.708ZM571.708 107.104H635.348V97.104H571.708V107.104ZM630.348 102.104V122.38H640.348V102.104H630.348ZM635.348 117.38H597.016V127.38H635.348V117.38ZM694.55 152.72L693.13 147.926C690.937 148.576 689.465 150.63 689.554 152.915C689.644 155.2 691.272 157.134 693.508 157.61L694.55 152.72ZM709.054 161.748L705.094 164.801C705.105 164.814 705.115 164.827 705.126 164.841L709.054 161.748ZM705.354 198.452L708.562 202.288L708.568 202.283L705.354 198.452ZM631.65 206H626.65C626.65 208.761 628.889 211 631.65 211V206ZM631.65 102.104V97.104C628.889 97.104 626.65 99.3426 626.65 102.104H631.65ZM703.134 109.356L699.972 113.229C699.982 113.237 699.993 113.246 700.003 113.254L703.134 109.356ZM707.278 144.284L703.383 141.149C703.368 141.168 703.352 141.188 703.337 141.208L707.278 144.284ZM656.958 144.136H651.958C651.958 146.897 654.197 149.136 656.958 149.136V144.136ZM683.006 141.472L686.173 145.342C686.179 145.337 686.185 145.332 686.191 145.327L683.006 141.472ZM683.006 125.192L679.738 128.976C679.766 129 679.794 129.024 679.822 129.047L683.006 125.192ZM656.958 122.38V117.38C654.197 117.38 651.958 119.619 651.958 122.38H656.958ZM685.374 182.764L688.559 186.619C688.564 186.614 688.57 186.61 688.575 186.605L685.374 182.764ZM685.226 165.744L681.934 169.507C681.959 169.529 681.985 169.551 682.011 169.573L685.226 165.744ZM656.958 162.636V157.636C654.197 157.636 651.958 159.875 651.958 162.636H656.958ZM656.958 185.576H651.958C651.958 188.337 654.197 190.576 656.958 190.576V185.576ZM693.508 157.61C698.404 158.654 702.19 161.033 705.094 164.801L713.015 158.695C708.617 152.991 702.734 149.352 695.593 147.83L693.508 157.61ZM705.126 164.841C708.068 168.578 709.53 172.811 709.53 177.732H719.53C719.53 170.615 717.343 164.193 712.983 158.655L705.126 164.841ZM709.53 177.732C709.53 185.083 707.018 190.531 702.141 194.621L708.568 202.283C715.925 196.112 719.53 187.746 719.53 177.732H709.53ZM702.147 194.616C697.32 198.652 690.174 201 680.046 201V211C691.626 211 701.352 208.316 708.562 202.288L702.147 194.616ZM680.046 201H631.65V211H680.046V201ZM636.65 206V102.104H626.65V206H636.65ZM631.65 107.104H678.418V97.104H631.65V107.104ZM678.418 107.104C688.259 107.104 695.232 109.358 699.972 113.229L706.297 105.483C699.197 99.6849 689.693 97.104 678.418 97.104V107.104ZM700.003 113.254C704.744 117.062 707.162 122.139 707.162 129.04H717.162C717.162 119.365 713.562 111.319 706.266 105.458L700.003 113.254ZM707.162 129.04C707.162 134.229 705.802 138.144 703.383 141.149L711.174 147.419C715.267 142.333 717.162 136.086 717.162 129.04H707.162ZM703.337 141.208C700.874 144.363 697.546 146.617 693.13 147.926L695.971 157.514C702.21 155.665 707.368 152.296 711.22 147.36L703.337 141.208ZM656.958 149.136H673.534V139.136H656.958V149.136ZM673.534 149.136C678.3 149.136 682.769 148.127 686.173 145.342L679.84 137.602C678.903 138.369 677.057 139.136 673.534 139.136V149.136ZM686.191 145.327C689.849 142.305 691.41 138.035 691.41 133.332H681.41C681.41 135.733 680.703 136.89 679.822 137.617L686.191 145.327ZM691.41 133.332C691.41 128.629 689.849 124.359 686.191 121.337L679.822 129.047C680.703 129.774 681.41 130.931 681.41 133.332H691.41ZM686.275 121.408C682.865 118.463 678.354 117.38 673.534 117.38V127.38C677.003 127.38 678.806 128.171 679.738 128.976L686.275 121.408ZM673.534 117.38H656.958V127.38H673.534V117.38ZM651.958 122.38V144.136H661.958V122.38H651.958ZM675.606 190.576C680.51 190.576 685.071 189.5 688.559 186.619L682.19 178.909C681.139 179.777 679.188 180.576 675.606 180.576V190.576ZM688.575 186.605C692.297 183.504 693.926 179.16 693.926 174.328H683.926C683.926 176.798 683.188 178.078 682.174 178.923L688.575 186.605ZM693.926 174.328C693.926 169.421 692.199 165.071 688.442 161.915L682.011 169.573C683.187 170.561 683.926 171.934 683.926 174.328H693.926ZM688.519 161.981C684.963 158.87 680.339 157.636 675.31 157.636V167.636C678.768 167.636 680.754 168.474 681.934 169.507L688.519 161.981ZM675.31 157.636H656.958V167.636H675.31V157.636ZM651.958 162.636V185.576H661.958V162.636H651.958ZM656.958 190.576H675.606V180.576H656.958V190.576ZM787.952 108.616L790.294 104.198L790.294 104.198L787.952 108.616ZM806.896 126.968L802.538 129.419C802.551 129.441 802.563 129.462 802.575 129.484L806.896 126.968ZM806.896 181.136L802.562 178.644C802.554 178.657 802.546 178.671 802.538 178.685L806.896 181.136ZM787.804 199.488L785.484 195.059C785.477 195.063 785.47 195.066 785.462 195.07L787.804 199.488ZM720.316 206H715.316C715.316 208.761 717.555 211 720.316 211V206ZM720.316 102.104V97.104C717.555 97.104 715.316 99.3426 715.316 102.104H720.316ZM745.624 123.712V118.712C742.863 118.712 740.624 120.951 740.624 123.712H745.624ZM745.624 184.096H740.624C740.624 186.857 742.863 189.096 745.624 189.096V184.096ZM759.24 107.104C769.524 107.104 778.263 109.139 785.61 113.034L790.294 104.198C781.263 99.4108 770.861 97.104 759.24 97.104V107.104ZM785.61 113.034C792.974 116.937 798.58 122.382 802.538 129.419L811.254 124.517C806.333 115.768 799.309 108.977 790.294 104.198L785.61 113.034ZM802.575 129.484C806.611 136.414 808.704 144.551 808.704 154.052H818.704C818.704 143.031 816.259 133.111 811.217 124.452L802.575 129.484ZM808.704 154.052C808.704 163.444 806.615 171.594 802.562 178.644L811.231 183.628C816.255 174.892 818.704 164.985 818.704 154.052H808.704ZM802.538 178.685C798.589 185.707 792.946 191.15 785.484 195.059L790.124 203.917C799.239 199.143 806.324 192.352 811.254 183.587L802.538 178.685ZM785.462 195.07C778.109 198.969 769.417 201 759.24 201V211C770.77 211 781.121 208.69 790.146 203.906L785.462 195.07ZM759.24 201H720.316V211H759.24V201ZM725.316 206V102.104H715.316V206H725.316ZM720.316 107.104H759.24V97.104H720.316V107.104ZM757.612 189.096C768.107 189.096 776.957 186.206 783.463 179.82L776.458 172.684C772.308 176.757 766.259 179.096 757.612 179.096V189.096ZM783.463 179.82C789.999 173.405 792.952 164.567 792.952 154.052H782.952C782.952 162.678 780.577 168.641 776.458 172.684L783.463 179.82ZM792.952 154.052C792.952 143.532 789.998 134.67 783.496 128.168L776.425 135.24C780.579 139.394 782.952 145.431 782.952 154.052H792.952ZM783.496 128.168C776.994 121.666 768.133 118.712 757.612 118.712V128.712C766.233 128.712 772.271 131.085 776.425 135.24L783.496 128.168ZM757.612 118.712H745.624V128.712H757.612V118.712ZM740.624 123.712V184.096H750.624V123.712H740.624ZM745.624 189.096H757.612V179.096H745.624V189.096ZM833.028 122.38V117.38C830.266 117.38 828.028 119.619 828.028 122.38H833.028ZM833.028 143.396H828.028C828.028 146.157 830.266 148.396 833.028 148.396V143.396ZM866.92 143.396H871.92C871.92 140.635 869.681 138.396 866.92 138.396V143.396ZM866.92 162.932V167.932C869.681 167.932 871.92 165.693 871.92 162.932H866.92ZM833.028 162.932V157.932C830.266 157.932 828.028 160.171 828.028 162.932H833.028ZM833.028 185.724H828.028C828.028 188.485 830.266 190.724 833.028 190.724V185.724ZM871.36 185.724H876.36C876.36 182.963 874.121 180.724 871.36 180.724V185.724ZM871.36 206V211C874.121 211 876.36 208.761 876.36 206H871.36ZM807.72 206H802.72C802.72 208.761 804.958 211 807.72 211V206ZM807.72 102.104V97.104C804.958 97.104 802.72 99.3426 802.72 102.104H807.72ZM871.36 102.104H876.36C876.36 99.3426 874.121 97.104 871.36 97.104V102.104ZM871.36 122.38V127.38C874.121 127.38 876.36 125.141 876.36 122.38H871.36ZM828.028 122.38V143.396H838.028V122.38H828.028ZM833.028 148.396H866.92V138.396H833.028V148.396ZM861.92 143.396V162.932H871.92V143.396H861.92ZM866.92 157.932H833.028V167.932H866.92V157.932ZM828.028 162.932V185.724H838.028V162.932H828.028ZM833.028 190.724H871.36V180.724H833.028V190.724ZM866.36 185.724V206H876.36V185.724H866.36ZM871.36 201H807.72V211H871.36V201ZM812.72 206V102.104H802.72V206H812.72ZM807.72 107.104H871.36V97.104H807.72V107.104ZM866.36 102.104V122.38H876.36V102.104H866.36ZM871.36 117.38H833.028V127.38H871.36V117.38ZM884.83 203.336L882.934 207.963L882.934 207.963L884.83 203.336ZM870.326 192.384L866.296 195.344C866.309 195.362 866.323 195.38 866.336 195.397L870.326 192.384ZM864.702 174.92V169.92C863.351 169.92 862.057 170.467 861.116 171.436C860.174 172.405 859.665 173.714 859.704 175.065L864.702 174.92ZM891.638 174.92L896.612 174.41C896.35 171.859 894.202 169.92 891.638 169.92V174.92ZM895.634 183.8L892.263 187.492C892.292 187.52 892.323 187.547 892.353 187.573L895.634 183.8ZM913.394 184.244L916.451 188.2C916.488 188.172 916.524 188.143 916.56 188.114L913.394 184.244ZM913.986 170.628L910.45 174.164C910.484 174.197 910.518 174.23 910.553 174.263L913.986 170.628ZM907.622 166.484L905.608 171.061C905.63 171.07 905.652 171.08 905.674 171.089L907.622 166.484ZM896.966 162.784L895.491 167.561C895.507 167.566 895.523 167.571 895.539 167.576L896.966 162.784ZM880.538 156.568L878.344 161.061L880.538 156.568ZM869.586 147.392L873.574 144.376L873.574 144.376L869.586 147.392ZM875.506 108.912L878.568 112.865C878.579 112.856 878.591 112.847 878.602 112.838L875.506 108.912ZM930.562 108.912L927.465 112.838C927.477 112.847 927.488 112.856 927.5 112.865L930.562 108.912ZM941.81 131.704V136.704C943.18 136.704 944.49 136.142 945.434 135.149C946.377 134.156 946.873 132.82 946.804 131.452L941.81 131.704ZM914.43 131.704L909.439 131.998C909.594 134.64 911.783 136.704 914.43 136.704V131.704ZM910.73 123.86L907.449 127.633C907.481 127.661 907.513 127.688 907.545 127.715L910.73 123.86ZM894.598 123.416L897.819 127.241C897.857 127.208 897.895 127.176 897.932 127.142L894.598 123.416ZM896.522 138.216L899.075 133.917L899.075 133.917L896.522 138.216ZM911.322 144.284L912.924 139.548C912.903 139.541 912.882 139.534 912.861 139.527L911.322 144.284ZM927.602 150.796L925.366 155.268C925.38 155.275 925.394 155.282 925.408 155.289L927.602 150.796ZM938.554 159.824L934.602 162.887L934.602 162.887L938.554 159.824ZM938.554 191.2L934.329 188.527C934.315 188.548 934.302 188.568 934.29 188.589L938.554 191.2ZM925.53 202.744L923.294 198.272L923.294 198.272L925.53 202.744ZM905.254 202.036C898.199 202.036 892.051 200.892 886.726 198.709L882.934 207.963C889.646 210.714 897.114 212.036 905.254 212.036V202.036ZM886.726 198.709C881.474 196.557 877.386 193.437 874.316 189.371L866.336 195.397C870.567 201 876.148 205.182 882.934 207.963L886.726 198.709ZM874.355 189.424C871.484 185.515 869.872 180.71 869.7 174.775L859.704 175.065C859.927 182.746 862.064 189.584 866.296 195.344L874.355 189.424ZM864.702 179.92H891.638V169.92H864.702V179.92ZM886.664 175.43C887.15 180.172 888.87 184.394 892.263 187.492L899.005 180.108C897.86 179.062 896.915 177.364 896.612 174.41L886.664 175.43ZM892.353 187.573C895.717 190.498 899.927 191.76 904.514 191.76V181.76C901.8 181.76 900.09 181.049 898.915 180.027L892.353 187.573ZM904.514 191.76C908.969 191.76 913.133 190.764 916.451 188.2L910.337 180.288C909.313 181.078 907.558 181.76 904.514 181.76V191.76ZM916.56 188.114C920.006 185.294 921.65 181.396 921.65 176.992H911.65C911.65 178.706 911.123 179.642 910.228 180.374L916.56 188.114ZM921.65 176.992C921.65 173.128 920.25 169.667 917.419 166.993L910.553 174.263C911.274 174.944 911.65 175.725 911.65 176.992H921.65ZM917.521 167.092C915.317 164.888 912.627 163.172 909.57 161.879L905.674 171.089C907.748 171.966 909.3 173.014 910.45 174.164L917.521 167.092ZM909.636 161.907C906.885 160.697 903.1 159.394 898.393 157.992L895.539 167.576C900.106 168.937 903.426 170.1 905.608 171.061L909.636 161.907ZM898.441 158.007C891.872 155.978 886.661 153.994 882.732 152.075L878.344 161.061C882.901 163.286 888.641 165.446 895.491 167.561L898.441 158.007ZM882.732 152.075C879.247 150.373 876.195 147.843 873.574 144.376L865.598 150.408C869.094 155.032 873.344 158.619 878.344 161.061L882.732 152.075ZM873.574 144.376C871.338 141.419 869.998 137.291 869.998 131.556H859.998C859.998 138.845 861.717 145.275 865.598 150.408L873.574 144.376ZM869.998 131.556C869.998 123.271 872.908 117.249 878.568 112.865L872.444 104.959C864.093 111.428 859.998 120.502 859.998 131.556H869.998ZM878.602 112.838C884.517 108.173 892.463 105.624 902.886 105.624V95.624C890.813 95.624 880.506 98.6005 872.409 104.986L878.602 112.838ZM902.886 105.624C913.529 105.624 921.565 108.184 927.465 112.838L933.658 104.986C925.548 98.589 915.133 95.624 902.886 95.624V105.624ZM927.5 112.865C933.225 117.299 936.388 123.474 936.816 131.956L946.804 131.452C946.245 120.398 941.91 111.378 933.624 104.959L927.5 112.865ZM941.81 126.704H914.43V136.704H941.81V126.704ZM919.421 131.41C919.155 126.885 917.411 122.893 913.914 120.005L907.545 127.715C908.588 128.576 909.31 129.813 909.439 131.998L919.421 131.41ZM914.011 120.087C910.672 117.183 906.526 115.9 901.998 115.9V125.9C904.574 125.9 906.249 126.59 907.449 127.633L914.011 120.087ZM901.998 115.9C897.987 115.9 894.244 117.024 891.264 119.69L897.932 127.142C898.702 126.454 899.891 125.9 901.998 125.9V115.9ZM891.377 119.591C888.102 122.35 886.786 126.236 886.786 130.372H896.786C896.786 128.391 897.344 127.64 897.819 127.241L891.377 119.591ZM886.786 130.372C886.786 135.684 889.468 139.843 893.969 142.515L899.075 133.917C897.261 132.84 896.786 131.769 896.786 130.372H886.786ZM893.969 142.515C897.618 144.682 902.98 146.84 909.783 149.041L912.861 139.527C906.245 137.386 901.741 135.5 899.075 133.917L893.969 142.515ZM909.72 149.02C916.313 151.25 921.504 153.337 925.366 155.268L929.838 146.324C925.412 144.111 919.75 141.856 912.924 139.548L909.72 149.02ZM925.408 155.289C928.923 157.006 931.984 159.509 934.602 162.887L942.506 156.761C939.006 152.245 934.766 148.73 929.796 146.303L925.408 155.289ZM934.602 162.887C936.829 165.761 938.142 169.684 938.142 175.068H948.142C948.142 168.02 946.396 161.781 942.506 156.761L934.602 162.887ZM938.142 175.068C938.142 180.076 936.863 184.521 934.329 188.527L942.779 193.873C946.362 188.21 948.142 181.9 948.142 175.068H938.142ZM934.29 188.589C931.879 192.527 928.29 195.774 923.294 198.272L927.766 207.216C934.215 203.992 939.309 199.543 942.818 193.811L934.29 188.589ZM923.294 198.272C918.401 200.718 912.439 202.036 905.254 202.036V212.036C913.658 212.036 921.214 210.492 927.766 207.216L923.294 198.272ZM963.897 102.104H968.897C968.897 99.3426 966.658 97.104 963.897 97.104V102.104ZM963.897 206V211C966.658 211 968.897 208.761 968.897 206H963.897ZM938.589 206H933.589C933.589 208.761 935.827 211 938.589 211V206ZM938.589 102.104V97.104C935.827 97.104 933.589 99.3426 933.589 102.104H938.589ZM958.897 102.104V206H968.897V102.104H958.897ZM963.897 201H938.589V211H963.897V201ZM943.589 206V102.104H933.589V206H943.589ZM938.589 107.104H963.897V97.104H938.589V107.104ZM1031.08 134.96L1026.68 137.345C1027.56 138.957 1029.24 139.96 1031.08 139.96V134.96ZM1022.94 127.116L1020.55 131.51C1020.6 131.537 1020.65 131.563 1020.7 131.588L1022.94 127.116ZM990.969 132.444L994.638 135.841C994.648 135.83 994.658 135.819 994.669 135.807L990.969 132.444ZM991.265 176.4L987.632 179.835C987.653 179.858 987.675 179.88 987.697 179.902L991.265 176.4ZM1028.41 179.656L1025.47 175.612C1025.46 175.623 1025.44 175.634 1025.43 175.645L1028.41 179.656ZM1037.89 166.04L1042.63 167.621C1043.14 166.096 1042.88 164.42 1041.94 163.116C1041 161.813 1039.49 161.04 1037.89 161.04V166.04ZM1005.77 166.04H1000.77C1000.77 168.801 1003.01 171.04 1005.77 171.04V166.04ZM1005.77 147.392V142.392C1003.01 142.392 1000.77 144.631 1000.77 147.392H1005.77ZM1060.83 147.392H1065.83C1065.83 144.631 1063.59 142.392 1060.83 142.392V147.392ZM1060.83 170.924L1065.62 172.347C1065.76 171.885 1065.83 171.406 1065.83 170.924H1060.83ZM1051.21 188.536L1047.37 185.328C1047.36 185.342 1047.35 185.356 1047.34 185.37L1051.21 188.536ZM1034.19 201.708L1032 197.21L1032 197.21L1034.19 201.708ZM983.273 200.08L980.804 204.428C980.825 204.44 980.846 204.452 980.868 204.463L983.273 200.08ZM964.477 181.284L960.106 183.712C960.114 183.726 960.122 183.74 960.129 183.753L964.477 181.284ZM964.477 126.524L960.116 124.078C960.113 124.084 960.11 124.09 960.106 124.096L964.477 126.524ZM983.273 107.728L985.701 112.099C985.715 112.091 985.729 112.084 985.742 112.076L983.273 107.728ZM1042.03 109.948L1039.14 114.026C1039.14 114.032 1039.15 114.037 1039.16 114.042L1042.03 109.948ZM1059.05 134.96V139.96C1060.6 139.96 1062.06 139.244 1063 138.02C1063.95 136.796 1064.28 135.203 1063.89 133.705L1059.05 134.96ZM1035.47 132.575C1033.1 128.211 1029.63 124.873 1025.17 122.644L1020.7 131.588C1023.35 132.911 1025.3 134.803 1026.68 137.345L1035.47 132.575ZM1025.32 122.722C1021 120.376 1016.05 119.304 1010.65 119.304V129.304C1014.73 129.304 1017.97 130.107 1020.55 131.51L1025.32 122.722ZM1010.65 119.304C1001.24 119.304 993.266 122.484 987.269 129.081L994.669 135.807C998.538 131.551 1003.69 129.304 1010.65 129.304V119.304ZM987.3 129.047C981.32 135.505 978.569 143.978 978.569 153.904H988.569C988.569 145.873 990.751 140.039 994.638 135.841L987.3 129.047ZM978.569 153.904C978.569 164.379 981.397 173.24 987.632 179.835L994.898 172.965C990.872 168.707 988.569 162.571 988.569 153.904H978.569ZM987.697 179.902C994.063 186.389 1002.62 189.392 1012.73 189.392V179.392C1004.68 179.392 998.926 177.067 994.833 172.898L987.697 179.902ZM1012.73 189.392C1019.82 189.392 1026.15 187.574 1031.4 183.667L1025.43 175.645C1022.19 178.053 1018.06 179.392 1012.73 179.392V189.392ZM1031.35 183.7C1036.67 179.834 1040.38 174.364 1042.63 167.621L1033.14 164.459C1031.44 169.556 1028.84 173.163 1025.47 175.612L1031.35 183.7ZM1037.89 161.04H1005.77V171.04H1037.89V161.04ZM1010.77 166.04V147.392H1000.77V166.04H1010.77ZM1005.77 152.392H1060.83V142.392H1005.77V152.392ZM1055.83 147.392V170.924H1065.83V147.392H1055.83ZM1056.03 169.501C1054.37 175.114 1051.5 180.386 1047.37 185.328L1055.04 191.744C1059.98 185.833 1063.54 179.363 1065.62 172.347L1056.03 169.501ZM1047.34 185.37C1043.4 190.184 1038.32 194.142 1032 197.21L1036.37 206.206C1043.87 202.565 1050.13 197.741 1055.07 191.702L1047.34 185.37ZM1032 197.21C1025.86 200.194 1018.83 201.74 1010.8 201.74V211.74C1020.14 211.74 1028.7 209.932 1036.37 206.206L1032 197.21ZM1010.8 201.74C1001.28 201.74 992.952 199.688 985.679 195.697L980.868 204.463C989.775 209.352 999.795 211.74 1010.8 211.74V201.74ZM985.742 195.732C978.534 191.639 972.918 186.023 968.825 178.815L960.129 183.753C965.113 192.529 972.028 199.444 980.804 204.428L985.742 195.732ZM968.848 178.856C964.869 171.694 962.817 163.421 962.817 153.904H952.817C952.817 164.909 955.205 174.89 960.106 183.712L968.848 178.856ZM962.817 153.904C962.817 144.387 964.869 136.114 968.848 128.952L960.106 124.096C955.205 132.918 952.817 142.899 952.817 153.904H962.817ZM968.838 128.97C972.93 121.675 978.532 116.082 985.701 112.099L980.845 103.357C972.03 108.254 965.101 115.191 960.116 124.078L968.838 128.97ZM985.742 112.076C992.897 108.013 1001.15 105.92 1010.65 105.92V95.92C999.629 95.92 989.633 98.3659 980.804 103.38L985.742 112.076ZM1010.65 105.92C1022.26 105.92 1031.65 108.717 1039.14 114.026L1044.92 105.87C1035.44 99.142 1023.91 95.92 1010.65 95.92V105.92ZM1039.16 114.042C1046.72 119.342 1051.73 126.647 1054.21 136.215L1063.89 133.705C1060.84 121.961 1054.51 112.591 1044.9 105.854L1039.16 114.042ZM1059.05 129.96H1031.08V139.96H1059.05V129.96ZM1147.66 206V211C1150.42 211 1152.66 208.761 1152.66 206H1147.66ZM1122.35 206L1118.18 208.756C1119.1 210.157 1120.67 211 1122.35 211V206ZM1080.02 141.916L1084.2 139.16C1082.98 137.319 1080.7 136.492 1078.58 137.127C1076.47 137.763 1075.02 139.709 1075.02 141.916H1080.02ZM1080.02 206V211C1082.78 211 1085.02 208.761 1085.02 206H1080.02ZM1054.72 206H1049.72C1049.72 208.761 1051.95 211 1054.72 211V206ZM1054.72 102.104V97.104C1051.95 97.104 1049.72 99.3426 1049.72 102.104H1054.72ZM1080.02 102.104L1084.2 99.3571C1083.28 97.9508 1081.71 97.104 1080.02 97.104V102.104ZM1122.35 166.484L1118.17 169.231C1119.39 171.077 1121.67 171.908 1123.79 171.274C1125.9 170.641 1127.35 168.693 1127.35 166.484H1122.35ZM1122.35 102.104V97.104C1119.59 97.104 1117.35 99.3426 1117.35 102.104H1122.35ZM1147.66 102.104H1152.66C1152.66 99.3426 1150.42 97.104 1147.66 97.104V102.104ZM1147.66 201H1122.35V211H1147.66V201ZM1126.52 203.244L1084.2 139.16L1075.85 144.672L1118.18 208.756L1126.52 203.244ZM1075.02 141.916V206H1085.02V141.916H1075.02ZM1080.02 201H1054.72V211H1080.02V201ZM1059.72 206V102.104H1049.72V206H1059.72ZM1054.72 107.104H1080.02V97.104H1054.72V107.104ZM1075.85 104.851L1118.17 169.231L1126.53 163.737L1084.2 99.3571L1075.85 104.851ZM1127.35 166.484V102.104H1117.35V166.484H1127.35ZM1122.35 107.104H1147.66V97.104H1122.35V107.104ZM1142.66 102.104V206H1152.66V102.104H1142.66Z" fill="var(--color-dark-1)" mask="url(#path-10-outside-1_3745_4)"/>
    </g>
    <defs>
        <style>
            :root {
                --color-accent-1: #e86344;
                --color-accent-2: #e86344;
                --color-dark-1: #090c0f;
                --color-dark-2: #121416;
                --color-light-1: #fafaf8;
                --color-light-2: #f0f2f4;
                --color-heading: #101b2b;
                --color-text: #5e6265;
                --color-border: #74787b;
            }
            @media (prefers-color-scheme:dark) {
                :root {
                --color-dark-1: #fafaf8;
                --color-dark-2: #f0f2f4;
                --color-light-1: #090c0f;
                --color-light-2: #121416;
                --color-heading: #fff;
                --color-text: #bcbcbc;
                --color-border: #74787b;
                }
              } 
        </style>
    <clipPath id="clip0_3745_4">
    <rect width="1163" height="211" fill="white"/>
    </clipPath>
    </defs>
    </svg>
    